<?xml version="1.0" encoding="UTF-8" standalone="no"?>
<!-- Created with Inkscape (http://www.inkscape.org/) -->

<svg
   xmlns:dc="http://purl.org/dc/elements/1.1/"
   xmlns:cc="http://creativecommons.org/ns#"
   xmlns:rdf="http://www.w3.org/1999/02/22-rdf-syntax-ns#"
   xmlns:svg="http://www.w3.org/2000/svg"
   xmlns="http://www.w3.org/2000/svg"
   xmlns:sodipodi="http://sodipodi.sourceforge.net/DTD/sodipodi-0.dtd"
   xmlns:inkscape="http://www.inkscape.org/namespaces/inkscape"
   version="1.1"
   id="svg2"
   xml:space="preserve"
   width="496.23331"
   height="107.64613"
   viewBox="0 0 496.2333 107.64613"
   sodipodi:docname="logo-validicity.svg"
   inkscape:version="0.92.3 (2405546, 2018-03-11)"><metadata
     id="metadata8"><rdf:RDF><cc:Work
         rdf:about=""><dc:format>image/svg+xml</dc:format><dc:type
           rdf:resource="http://purl.org/dc/dcmitype/StillImage" /><dc:title></dc:title></cc:Work></rdf:RDF></metadata><defs
     id="defs6"><clipPath
       clipPathUnits="userSpaceOnUse"
       id="clipPath26"><path
         d="m 58.819,253.201 h 372.564 v 80.734 H 58.819 Z"
         id="path24"
         inkscape:connector-curvature="0" /></clipPath><clipPath
       clipPathUnits="userSpaceOnUse"
       id="clipPath38"><path
         d="m 57.209,248.802 h 455.152 v 94.189 H 57.209 Z"
         id="path36"
         inkscape:connector-curvature="0" /></clipPath></defs><sodipodi:namedview
     pagecolor="#ffffff"
     bordercolor="#666666"
     borderopacity="1"
     objecttolerance="10"
     gridtolerance="10"
     guidetolerance="10"
     inkscape:pageopacity="0"
     inkscape:pageshadow="2"
     inkscape:window-width="1891"
     inkscape:window-height="1208"
     id="namedview4"
     showgrid="false"
     inkscape:zoom="2.0899583"
     inkscape:cx="203.55222"
     inkscape:cy="97.527872"
     inkscape:window-x="0"
     inkscape:window-y="0"
     inkscape:window-maximized="0"
     inkscape:current-layer="g10" /><g
     id="g10"
     inkscape:groupmode="layer"
     inkscape:label="Validicity_Grafisk_Guide"
     transform="matrix(1.3333333,0,0,-1.3333333,-78.943998,445.24719)"><text
   transform="matrix(1,0,0,-1,56.6929,499.6565)"
   style="font-variant:normal;font-weight:normal;font-stretch:normal;font-size:30px;font-family:Arial;-inkscape-font-specification:ArialMT;writing-mode:lr-tb;fill:#102e5e;fill-opacity:1;fill-rule:nonzero;stroke:none"
   id="text14"><tspan
     x="0 23.34 33.330002 50.009998 65.010002 80.010002 95.010002 103.35 126.69 143.37 150.03 166.71001"
     y="0"
     sodipodi:role="line"
     id="tspan12">Grafsk Guide</tspan></text>

<text
   transform="matrix(1,0,0,-1,56.6929,463.6565)"
   style="font-variant:normal;font-weight:normal;font-stretch:normal;font-size:30px;font-family:Arial;-inkscape-font-specification:ArialMT;writing-mode:lr-tb;fill:#687d8b;fill-opacity:1;fill-rule:nonzero;stroke:none"
   id="text18"><tspan
     x="0 16.68 33.360001 50.040001 66.720001 75.059998 90.059998 106.74 123.42 131.75999 149.562 166.242 172.90199 179.562 196.242 202.90199 217.90199 224.562 232.90199"
     y="0"
     sodipodi:role="line"
     id="tspan16">Logotype Validicity</tspan></text>

<g
   id="g20"><g
     id="g22"
     clip-path="url(#clipPath26)"><g
       id="g28"
       transform="translate(80.6774,264.3604)"><path
         d="m 0,0 h -0.001 l -21.548,0.036 c -0.111,0 -0.213,0.059 -0.268,0.155 -0.055,0.096 -0.055,0.214 0,0.31 L 11.335,57.9 c 0.055,0.096 0.157,0.155 0.268,0.155 L 32.74,58.05 c 0.111,0 0.213,-0.059 0.268,-0.155 0.055,-0.095 0.056,-0.213 10e-4,-0.308 L 0.269,0.156 C 0.214,0.059 0.111,0 0,0"
         style="fill:#d13337;fill-opacity:1;fill-rule:nonzero;stroke:none"
         id="path30"
         inkscape:connector-curvature="0" /></g></g></g><g
   id="g32"><g
     id="g34"
     clip-path="url(#clipPath38)"><g
       id="g40"
       transform="translate(114.3143,264.3604)"><path
         d="m 0,0 v 0 l -21.137,0.005 c -0.111,0 -0.213,0.059 -0.268,0.155 -0.056,0.095 -0.056,0.214 0,0.31 l 39.797,68.95 c 0.055,0.096 0.157,0.155 0.268,0.155 h 0.001 L 40.21,69.539 c 0.111,-0.001 0.213,-0.06 0.268,-0.156 0.055,-0.096 0.055,-0.215 -0.001,-0.31 L 0.267,0.154 C 0.212,0.058 0.11,0 0,0"
         style="fill:#19478e;fill-opacity:1;fill-rule:nonzero;stroke:none"
         id="path42"
         inkscape:connector-curvature="0" /></g><g
       id="g44"
       transform="translate(81.0671,322.1051)"><path
         d="M 0,0 32.74,-57.43 11.603,-57.435 -21.549,-0.036 Z"
         style="fill:#254a92;fill-opacity:1;fill-rule:nonzero;stroke:none"
         id="path46"
         inkscape:connector-curvature="0" /></g><g
       id="g48"
       transform="translate(92.67,264.3604)"><path
         d="M 0,0 C -0.111,0 -0.213,0.059 -0.268,0.155 L -33.42,57.554 c -0.056,0.095 -0.056,0.213 0,0.309 0.055,0.096 0.157,0.155 0.267,0.156 l 21.55,0.036 v 0 c 0.111,0 0.214,-0.06 0.269,-0.157 L 21.407,0.468 C 21.461,0.372 21.46,0.255 21.405,0.159 21.35,0.063 21.248,0.005 21.137,0.005 Z"
         style="fill:#2057af;fill-opacity:1;fill-rule:nonzero;stroke:none"
         id="path50"
         inkscape:connector-curvature="0" /></g><g
       id="g52"
       transform="translate(125.5276,264.6701)"><path
         d="M 0,0 -32.74,57.43 -11.603,57.435 21.549,0.036 Z"
         style="fill:#f03b41;fill-opacity:1;fill-rule:nonzero;stroke:none"
         id="path54"
         inkscape:connector-curvature="0" /></g><g
       id="g56"
       transform="translate(125.5276,264.3604)"><path
         d="m 0,0 c -0.111,0 -0.214,0.059 -0.269,0.156 l -32.74,57.431 c -0.055,0.095 -0.054,0.213 10e-4,0.308 0.056,0.096 0.158,0.155 0.268,0.155 l 21.137,0.005 c 0.111,0 0.213,-0.059 0.268,-0.155 L 21.817,0.501 c 0.055,-0.096 0.055,-0.214 0,-0.31 C 21.761,0.095 21.66,0.036 21.55,0.036 L 0.001,0 Z"
         style="fill:#f03b41;fill-opacity:1;fill-rule:nonzero;stroke:none"
         id="path58"
         inkscape:connector-curvature="0" /></g><g
       id="g60"
       transform="translate(190.1132,265.8188)"><path
         d="m 0,0 -15.34,42.92 h 9.397 L 3.314,15.848 C 4.197,13.266 5.62,13.273 6.477,15.863 L 15.43,42.92 h 6.823 c 1.154,0 1.959,-1.145 1.57,-2.231 L 9.252,0 Z"
         style="fill:#254a92;fill-opacity:1;fill-rule:nonzero;stroke:none"
         id="path62"
         inkscape:connector-curvature="0" /></g><g
       id="g64"
       transform="translate(232.3456,280.7503)"><path
         d="m 0,0 c -1.054,-0.352 -2.724,-0.771 -5.007,-1.259 -2.283,-0.488 -3.776,-0.966 -4.479,-1.435 -1.074,-0.761 -1.61,-1.727 -1.61,-2.898 0,-1.152 0.429,-2.147 1.288,-2.986 0.859,-0.84 1.952,-1.259 3.279,-1.259 1.483,0 2.898,0.488 4.245,1.463 0.995,0.742 1.65,1.65 1.962,2.724 C -0.108,-4.948 0,-3.611 0,-1.64 Z m -12.32,6.911 -6.154,1.111 c 0.84,3.005 2.283,5.23 4.333,6.675 2.049,1.444 5.094,2.166 9.134,2.166 3.669,0 6.402,-0.434 8.198,-1.303 C 4.987,14.691 6.25,13.589 6.982,12.252 7.714,10.915 8.079,8.461 8.079,4.889 L 7.992,-4.714 c 0,-2.733 0.133,-4.748 0.395,-6.045 0.264,-1.298 0.756,-2.689 1.479,-4.173 H 1.727 c -0.215,0.547 -0.478,1.357 -0.791,2.43 -0.136,0.488 -0.234,0.811 -0.292,0.967 -1.405,-1.366 -2.909,-2.391 -4.509,-3.074 -1.6,-0.683 -3.308,-1.025 -5.123,-1.025 -3.202,0 -5.723,0.869 -7.569,2.606 -1.843,1.736 -2.766,3.933 -2.766,6.587 0,1.756 0.419,3.323 1.26,4.699 0.838,1.376 2.014,2.43 3.527,3.161 1.512,0.732 3.693,1.371 6.544,1.918 3.844,0.722 6.508,1.396 7.992,2.02 v 0.82 c 0,1.581 -0.391,2.708 -1.171,3.382 -0.781,0.673 -2.255,1.01 -4.421,1.01 -1.463,0 -2.606,-0.289 -3.425,-0.864 -0.589,-0.414 -1.098,-1.051 -1.525,-1.913 -0.326,-0.656 -1.056,-1.011 -1.778,-0.881"
         style="fill:#254a92;fill-opacity:1;fill-rule:nonzero;stroke:none"
         id="path66"
         inkscape:connector-curvature="0" /></g><g
       id="g68"
       transform="translate(247.9352,265.8188)"><path
         d="m 0,0 v 41.251 c 0,0.922 0.747,1.669 1.668,1.669 h 6.56 V 0 Z"
         style="fill:#254a92;fill-opacity:1;fill-rule:nonzero;stroke:none"
         id="path70"
         inkscape:connector-curvature="0" /></g><g
       id="g72"
       transform="translate(263.9944,265.8188)"><path
         d="m 0,0 v 31.092 h 6.559 c 0.921,0 1.669,-0.747 1.669,-1.668 V 0 Z m 0,35.307 v 7.613 h 8.228 v -5.944 c 0,-0.921 -0.748,-1.669 -1.669,-1.669 z"
         style="fill:#254a92;fill-opacity:1;fill-rule:nonzero;stroke:none"
         id="path74"
         inkscape:connector-curvature="0" /></g><g
       id="g76"
       transform="translate(286.6108,282.0384)"><path
         d="m 0,0 c 0,-3.319 0.458,-5.719 1.376,-7.202 1.327,-2.147 3.181,-3.221 5.562,-3.221 1.894,0 3.504,0.806 4.831,2.416 1.327,1.61 1.99,4.015 1.99,7.216 0,3.572 -0.643,6.143 -1.931,7.715 C 10.54,8.495 8.89,9.28 6.881,9.28 4.928,9.28 3.294,8.504 1.976,6.953 0.659,5.401 0,3.083 0,0 m 21.958,-16.22 h -7.642 v 4.568 c -1.268,-1.777 -2.766,-3.099 -4.494,-3.967 -1.726,-0.868 -3.469,-1.303 -5.226,-1.303 -3.571,0 -6.631,1.439 -9.178,4.318 -2.546,2.879 -3.82,6.895 -3.82,12.047 0,5.27 1.239,9.276 3.718,12.019 2.478,2.742 5.611,4.113 9.398,4.113 3.474,0 6.479,-1.445 9.016,-4.333 v 13.79 c 0,0.921 0.747,1.668 1.669,1.668 h 6.559 z"
         style="fill:#254a92;fill-opacity:1;fill-rule:nonzero;stroke:none"
         id="path78"
         inkscape:connector-curvature="0" /></g><g
       id="g80"
       transform="translate(316.0788,265.8188)"><path
         d="m 0,0 v 31.092 h 6.558 c 0.922,0 1.669,-0.747 1.669,-1.668 V 0 Z m 0,35.307 v 7.613 h 8.227 v -5.944 c 0,-0.921 -0.747,-1.669 -1.669,-1.669 z"
         style="fill:#254a92;fill-opacity:1;fill-rule:nonzero;stroke:none"
         id="path82"
         inkscape:connector-curvature="0" /></g><g
       id="g84"
       transform="translate(359.2468,287.7177)"><path
         d="m 0,0 -6.586,-1.189 c -0.817,-0.147 -1.599,0.335 -1.878,1.117 -0.337,0.947 -0.838,1.703 -1.504,2.268 -0.966,0.819 -2.22,1.23 -3.762,1.23 -2.05,0 -3.685,-0.708 -4.904,-2.123 -1.221,-1.416 -1.83,-3.782 -1.83,-7.1 0,-3.689 0.619,-6.294 1.859,-7.817 1.239,-1.521 2.903,-2.283 4.992,-2.283 1.56,0 2.84,0.443 3.835,1.332 0.995,0.888 1.697,2.416 2.108,4.581 l 8.08,-1.375 c -0.839,-3.709 -2.449,-6.51 -4.83,-8.403 -2.381,-1.893 -5.573,-2.84 -9.573,-2.84 -4.548,0 -8.174,1.435 -10.877,4.304 -2.703,2.869 -4.055,6.841 -4.055,11.916 0,5.133 1.357,9.129 4.07,11.989 2.712,2.858 6.381,4.289 11.007,4.289 3.787,0 6.798,-0.816 9.032,-2.445 C -2.582,5.821 -0.976,3.338 0,0"
         style="fill:#254a92;fill-opacity:1;fill-rule:nonzero;stroke:none"
         id="path86"
         inkscape:connector-curvature="0" /></g><g
       id="g88"
       transform="translate(364.8834,265.8188)"><path
         d="m 0,0 v 31.092 h 6.558 c 0.922,0 1.668,-0.747 1.668,-1.668 L 8.226,0 Z m 0,35.307 v 7.613 h 8.226 v -5.944 c 0,-0.921 -0.746,-1.669 -1.668,-1.669 z"
         style="fill:#254a92;fill-opacity:1;fill-rule:nonzero;stroke:none"
         id="path90"
         inkscape:connector-curvature="0" /></g><g
       id="g92"
       transform="translate(395.2001,296.9108)"><path
         d="m 0,0 v -6.558 h -5.621 v -12.53 c 0,-2.538 0.054,-4.016 0.161,-4.436 0.107,-0.42 0.351,-0.766 0.732,-1.039 0.381,-0.274 0.843,-0.41 1.391,-0.41 0.761,0 1.864,0.264 3.308,0.791 l 0.703,-6.383 c -1.913,-0.819 -4.08,-1.23 -6.5,-1.23 -1.483,0 -2.821,0.25 -4.01,0.747 -1.192,0.498 -2.065,1.142 -2.622,1.933 -0.555,0.79 -0.941,1.859 -1.156,3.205 -0.175,0.956 -0.263,2.889 -0.263,5.797 v 13.555 h -3.777 V 0 h 3.777 v 6.177 l 8.256,4.802 V 1.668 C -5.621,0.747 -4.874,0 -3.953,0 Z"
         style="fill:#254a92;fill-opacity:1;fill-rule:nonzero;stroke:none"
         id="path94"
         inkscape:connector-curvature="0" /></g><g
       id="g96"
       transform="translate(399.413,296.9108)"><path
         d="m 0,0 h 8.754 l 5.836,-17.325 c 0.88,-2.612 2.304,-2.607 3.166,0.011 L 23.451,0 H 31.97 L 20.991,-29.92 19.03,-35.336 c -0.723,-1.816 -1.41,-3.201 -2.064,-4.158 -0.653,-0.956 -1.405,-1.732 -2.254,-2.328 -0.85,-0.595 -1.894,-1.058 -3.133,-1.39 -1.24,-0.332 -2.64,-0.498 -4.201,-0.498 -1.582,0 -3.132,0.166 -4.656,0.498 l -0.731,6.441 c 1.288,-0.254 2.449,-0.381 3.483,-0.381 1.913,0 3.328,0.561 4.246,1.684 0.916,1.122 1.619,2.552 2.108,4.289 z"
         style="fill:#254a92;fill-opacity:1;fill-rule:nonzero;stroke:none"
         id="path98"
         inkscape:connector-curvature="0" /></g></g></g></g></svg>